<svg width="31" height="31" fill="none" xmlns="http://www.w3.org/2000/svg"><path d="M15.8 30.401c-8.2 0-14.8-6.6-14.8-14.7s6.6-14.7 14.7-14.7c8.2-.1 14.8 6.5 14.8 14.6 0 8.2-6.6 14.8-14.7 14.8z" fill="#fff" stroke="#333" stroke-width=".7" stroke-miterlimit="10"/><path d="M10.5 15.8h11.1c.3 0 .5-.16.5-.4 0-.24-.2-.4-.5-.4H10.5c-.3 0-.5.16-.5.4 0 .24.3.4.5.4z" fill="#333"/><path d="M13.8 18.8c-1.2-1.2-2.5-2.4-3.7-3.5 1.2-1.1 2.5-2.2 3.7-3.3" stroke="#333" stroke-width=".8" stroke-miterlimit="10" stroke-linecap="round" stroke-linejoin="round"/></svg>