<svg width="27" height="26" fill="none" xmlns="http://www.w3.org/2000/svg"><path d="M25.891 7.638l-2.825 8.764a1.495 1.495 0 01-1.425 1.04H10.738c-.634 0-1.241-.39-1.452-.962l-4.172-11H2.712c-.58 0-1.056-.469-1.056-1.041s.475-1.04 1.056-1.04h3.142c.448 0 .844.286 1.003.702l4.303 11.26h10.032l2.244-7.021H11.002A1.051 1.051 0 019.946 7.3c0-.572.475-1.04 1.056-1.04h13.886c.343 0 .66.181.845.442.211.26.264.624.158.936zM11.266 18.82c-.45 0-.898.183-1.215.495a1.702 1.702 0 00-.501 1.196c0 .442.184.884.501 1.196.317.312.766.494 1.215.494.448 0 .897-.182 1.214-.494.317-.312.502-.754.502-1.196 0-.442-.185-.884-.502-1.196a1.755 1.755 0 00-1.214-.495zm9.477 0c-.449 0-.897.183-1.214.495a1.702 1.702 0 00-.502 1.196c0 .442.185.884.502 1.196.317.312.765.494 1.214.494.449 0 .898-.182 1.215-.494.316-.312.501-.754.501-1.196 0-.442-.185-.884-.501-1.196a1.755 1.755 0 00-1.215-.495z" fill="#fff"/></svg>