<svg width="19" height="17" fill="none" xmlns="http://www.w3.org/2000/svg"><path d="M16.632 1.642A4.921 4.921 0 0013.563.59c-1.306 0-2.57.503-3.466 1.38-.21.204-.4.429-.578.678A4.901 4.901 0 004.645.659c-1.51.266-2.697 1.07-3.528 2.39C-.072 4.94-.166 6.687.828 8.389c.534.911 1.228 1.803 2.123 2.725C4.6 12.81 6.55 14.42 9.09 16.18c.135.093.28.14.427.14.23 0 .385-.112.474-.177 2.258-1.56 4.111-3.064 5.666-4.598.874-.863 1.865-1.923 2.589-3.241.304-.556.65-1.301.63-2.143-.045-1.843-.8-3.363-2.244-4.519zm.687 6.185c-.66 1.204-1.59 2.196-2.41 3.007-1.481 1.46-3.246 2.896-5.395 4.39-2.392-1.67-4.24-3.2-5.798-4.806-.838-.863-1.483-1.69-1.975-2.53-.8-1.371-.714-2.741.273-4.31.667-1.062 1.616-1.707 2.818-1.92.23-.04.464-.06.694-.06 1.432 0 2.7.764 3.387 2.04l.142.26c.09.165.269.269.462.269h.01a.526.526 0 00.46-.284c.252-.492.523-.873.855-1.199.702-.686 1.694-1.079 2.722-1.079.886 0 1.739.291 2.4.82 1.2.96 1.826 2.225 1.864 3.76.014.603-.25 1.168-.51 1.642z" fill="#95B8CB"/></svg>