<svg width="18" height="16" fill="none" xmlns="http://www.w3.org/2000/svg"><path d="M15.852 1.064A4.607 4.607 0 0012.902.02a4.722 4.722 0 00-3.333 1.365c-.2.2-.38.421-.562.682C8.125.783 6.7 0 5.175 0c-.281 0-.562.02-.843.08C2.866.341 1.721 1.144.92 2.45-.205 4.335-.305 6.06.66 7.747c.521.903 1.183 1.787 2.046 2.71 1.566 1.686 3.452 3.291 5.881 5.037.12.1.26.141.401.141.221 0 .362-.12.462-.18 2.188-1.546 3.954-3.051 5.46-4.577.842-.863 1.786-1.906 2.488-3.211.301-.542.622-1.285.602-2.128-.04-1.826-.763-3.331-2.147-4.475z" fill="#95B8CB"/></svg>