<svg width="31" height="31" viewBox="0 0 31 31" fill="none" xmlns="http://www.w3.org/2000/svg">
<path d="M15.8 30.4011C7.6 30.4011 1 23.8011 1 15.7011C1 7.60112 7.6 1.00112 15.7 1.00112C23.9 0.901122 30.5 7.50112 30.5 15.6011C30.5 23.8011 23.9 30.4011 15.8 30.4011Z" fill="white" stroke="#333333" stroke-width="0.7" stroke-miterlimit="10"/>
<path d="M21.6001 15L10.5001 15C10.2001 15 10.0001 15.16 10.0001 15.4C10.0001 15.64 10.2001 15.8 10.5001 15.8L21.6001 15.8C21.9001 15.8 22.1001 15.64 22.1001 15.4C22.1001 15.16 21.8001 15 21.6001 15Z" fill="#333333"/>
<path d="M18.3 12C19.5 13.2 20.8 14.4 22 15.5C20.8 16.6 19.5 17.7 18.3 18.8" stroke="#333333" stroke-width="0.8" stroke-miterlimit="10" stroke-linecap="round" stroke-linejoin="round"/>
</svg>
