<svg width="31" height="31" viewBox="0 0 31 31" fill="none" xmlns="http://www.w3.org/2000/svg">
<path d="M15.8 30.4011C7.6 30.4011 1 23.8011 1 15.7011C1 7.60112 7.6 1.00112 15.7 1.00112C23.9 0.901122 30.5 7.50112 30.5 15.6011C30.5 23.8011 23.9 30.4011 15.8 30.4011Z" fill="white" stroke="#333333" stroke-width="0.7" stroke-miterlimit="10"/>
<path d="M10.5 15.8H21.6C21.9 15.8 22.1 15.64 22.1 15.4C22.1 15.16 21.9 15 21.6 15H10.5C10.2 15 10 15.16 10 15.4C10 15.64 10.3 15.8 10.5 15.8Z" fill="#333333"/>
<path d="M13.8001 18.8C12.6001 17.6 11.3001 16.4 10.1001 15.3C11.3001 14.2 12.6001 13.1 13.8001 12" stroke="#333333" stroke-width="0.8" stroke-miterlimit="10" stroke-linecap="round" stroke-linejoin="round"/>
</svg>
