<svg width="20" height="14" viewBox="0 0 20 14" fill="none" xmlns="http://www.w3.org/2000/svg">
<path d="M18.7744 0.000652222C18.4668 0.0108721 18.1752 0.138342 17.9614 0.35613L7.07073 11.178L2.04463 6.18521C1.93581 6.07285 1.80531 5.98298 1.66075 5.92085C1.5162 5.85873 1.3605 5.8256 1.20277 5.82341C1.04505 5.82121 0.888458 5.84999 0.742176 5.90807C0.595894 5.96615 0.462857 6.05235 0.350854 6.16164C0.238851 6.27092 0.150132 6.40109 0.0898909 6.54452C0.0296497 6.68795 -0.000903341 6.84177 2.03344e-05 6.99696C0.00094401 7.15216 0.0333258 7.30561 0.0952702 7.44834C0.157215 7.59107 0.247477 7.7202 0.360773 7.82819L6.22765 13.655C6.3379 13.7643 6.46905 13.8511 6.61356 13.9103C6.75806 13.9695 6.91304 14 7.06958 14C7.22611 14 7.3811 13.9695 7.5256 13.9103C7.6701 13.8511 7.80126 13.7643 7.91151 13.655L19.6452 1.99912C19.8156 1.83444 19.9314 1.62298 19.9776 1.39244C20.0238 1.1619 19.9981 0.923013 19.904 0.70705C19.8099 0.491088 19.6517 0.308111 19.4502 0.18207C19.2486 0.0560296 19.0131 -0.00720176 18.7744 0.000652222Z" fill="white"/>
</svg>
