<svg width="27" height="26" viewBox="0 0 27 26" fill="none" xmlns="http://www.w3.org/2000/svg">
<path d="M25.8912 7.63778L23.0664 16.4019C22.8552 17.026 22.3008 17.4421 21.6408 17.4421H10.7376C10.104 17.4421 9.49681 17.052 9.28561 16.4799L5.11441 5.47927H2.71201C2.13121 5.47927 1.65601 5.01116 1.65601 4.43902C1.65601 3.86688 2.13121 3.39877 2.71201 3.39877H5.85361C6.30241 3.39877 6.69841 3.68484 6.85681 4.10094L11.16 15.3616H21.192L23.436 8.33995H11.0016C10.4208 8.33995 9.94561 7.87184 9.94561 7.2997C9.94561 6.72757 10.4208 6.25945 11.0016 6.25945H24.888C25.2312 6.25945 25.548 6.4415 25.7328 6.70156C25.944 6.96162 25.9968 7.32571 25.8912 7.63778ZM11.2656 18.8204C10.8168 18.8204 10.368 19.0025 10.0512 19.3146C9.7344 19.6266 9.54961 20.0687 9.54961 20.5108C9.54961 20.953 9.7344 21.3951 10.0512 21.7071C10.368 22.0192 10.8168 22.2012 11.2656 22.2012C11.7144 22.2012 12.1632 22.0192 12.48 21.7071C12.7968 21.3951 12.9816 20.953 12.9816 20.5108C12.9816 20.0687 12.7968 19.6266 12.48 19.3146C12.1632 19.0025 11.7144 18.8204 11.2656 18.8204ZM20.7432 18.8204C20.2944 18.8204 19.8456 19.0025 19.5288 19.3146C19.212 19.6266 19.0272 20.0687 19.0272 20.5108C19.0272 20.953 19.212 21.3951 19.5288 21.7071C19.8456 22.0192 20.2944 22.2012 20.7432 22.2012C21.192 22.2012 21.6408 22.0192 21.9576 21.7071C22.2744 21.3951 22.4592 20.953 22.4592 20.5108C22.4592 20.0687 22.2744 19.6266 21.9576 19.3146C21.6408 19.0025 21.192 18.8204 20.7432 18.8204Z" fill="white"/>
</svg>
