<svg width="18" height="16" viewBox="0 0 18 16" fill="none" xmlns="http://www.w3.org/2000/svg">
<path d="M15.8516 1.06374C15.0287 0.38134 13.985 0.0200705 12.9012 0.0200705C11.6367 0.0200705 10.4325 0.521834 9.56948 1.38487C9.36877 1.58557 9.18813 1.80635 9.0075 2.06727C8.1244 0.782751 6.69939 0 5.17402 0C4.89304 0 4.61205 0.0200705 4.33106 0.0802821C2.86591 0.341199 1.72189 1.14402 0.919069 2.44861C-0.204882 4.33524 -0.305235 6.06131 0.658152 7.74723C1.17999 8.65041 1.84231 9.53351 2.70535 10.4568C4.27085 12.1427 6.15748 13.7483 8.58602 15.4945C8.70644 15.5948 8.84694 15.635 8.98743 15.635C9.20821 15.635 9.3487 15.5145 9.44905 15.4543C11.6367 13.9089 13.4029 12.4036 14.9082 10.8782C15.7512 10.0152 16.6945 8.97154 17.397 7.66695C17.698 7.12504 18.0192 6.38243 17.9991 5.53947C17.959 3.71305 17.2364 2.20776 15.8516 1.06374Z" fill="#95B8CB"/>
</svg>
