<svg width="19" height="17" viewBox="0 0 19 17" fill="none" xmlns="http://www.w3.org/2000/svg">
<path d="M16.6321 1.64212C15.7827 0.962938 14.693 0.588872 13.5635 0.588872C12.2573 0.588872 10.9934 1.09194 10.0967 1.96948C9.88748 2.17329 9.69623 2.39794 9.51876 2.64684C8.60216 1.35945 7.12142 0.58139 5.52583 0.58139C5.23353 0.58139 4.93704 0.607474 4.64453 0.658832C3.13455 0.925127 1.94778 1.72947 1.11721 3.04881C-0.0718587 4.94017 -0.166024 6.68675 0.828449 8.38845C1.36191 9.29996 2.05593 10.1916 2.95144 11.1141C4.59901 12.8103 6.54891 14.4196 9.0899 16.1801C9.2252 16.2734 9.36926 16.3203 9.51729 16.3203C9.74696 16.3203 9.9023 16.2076 9.99083 16.1429C12.2491 14.5826 14.1021 13.0792 15.6568 11.5454C16.5312 10.6824 17.5217 9.62206 18.2458 8.30353C18.5496 7.74829 18.8966 7.00299 18.8764 6.16104C18.8308 4.31821 18.0761 2.79768 16.6321 1.64212ZM17.3188 7.82735C16.6582 9.03103 15.7293 10.023 14.9083 10.8338C13.428 12.2943 11.663 13.7305 9.51395 15.2242C7.12183 13.5548 5.27487 12.0242 3.71561 10.4183C2.87794 9.55533 2.23278 8.72774 1.74149 7.88761C0.94057 6.51671 1.02659 5.14702 2.01355 3.57776C2.68147 2.51622 3.63043 1.8706 4.83181 1.6585C5.0619 1.61786 5.29554 1.59764 5.52583 1.59764C6.95751 1.59764 8.22509 2.36215 8.91305 3.63741C8.95231 3.71161 8.99093 3.78238 9.05461 3.89723C9.14565 4.06344 9.32375 4.16656 9.51709 4.16656C9.52001 4.16656 9.52314 4.16656 9.52606 4.16656C9.72254 4.16332 9.90084 4.05394 9.9877 3.88308C10.2385 3.39052 10.5097 3.00999 10.8421 2.68445C11.5438 1.99799 12.5356 1.60512 13.5637 1.60512C14.4502 1.60512 15.3025 1.89649 15.9635 2.42584C17.1632 3.38466 17.79 4.65001 17.828 6.1851C17.842 6.78805 17.5781 7.3534 17.3188 7.82735Z" fill="#CFCFCF"/>
</svg>
